<?xml version="1.0" encoding="UTF-8"?>
<svg version="1.1" xmlns="http://www.w3.org/2000/svg" width="256" height="256">
<path d="M0 0 C2.45767104 -0.00434431 4.91349783 -0.04069043 7.37084961 -0.07861328 C40.44814426 -0.31388114 71.26592674 14.36642913 94.82202148 37.17138672 C111.41375872 53.88215388 123.2620136 75.55671164 128.92358398 98.37060547 C129.20395508 99.49873657 129.20395508 99.49873657 129.48999023 100.6496582 C131.25661116 108.87154352 131.29583724 117.07542825 131.29418945 125.44702148 C131.29853376 127.90469253 131.33487988 130.36051932 131.37280273 132.81787109 C131.57821823 161.72390395 120.54395593 189.40306697 101.92358398 211.37060547 C101.49851563 211.87930176 101.07344727 212.38799805 100.63549805 212.91210938 C83.3022083 233.48642433 58.97884253 247.90464743 32.92358398 254.37060547 C32.17149658 254.55751953 31.41940918 254.74443359 30.64453125 254.93701172 C22.42264593 256.70363264 14.21876121 256.74285873 5.84716797 256.74121094 C3.38949693 256.74555524 0.93367014 256.78190136 -1.52368164 256.81982422 C-34.60097629 257.05509208 -65.41875877 242.3747818 -88.97485352 219.56982422 C-105.56659075 202.85905705 -117.41484563 181.1844993 -123.07641602 158.37060547 C-123.26333008 157.61851807 -123.45024414 156.86643066 -123.64282227 156.09155273 C-125.40944319 147.86966742 -125.44866927 139.66578269 -125.44702148 131.29418945 C-125.45136579 128.83651841 -125.48771191 126.38069162 -125.52563477 123.92333984 C-125.73062249 95.07750313 -114.73930074 67.25664481 -96.07641602 45.37060547 C-95.62959473 44.83483887 -95.18277344 44.29907227 -94.72241211 43.74707031 C-71.29833519 15.8943143 -36.16965292 -0.00711931 0 0 Z " fill="#FEFEFE" transform="translate(125.076416015625,-0.37060546875)"/>
<path d="M0 0 C7.52929554 -0.09367609 15.05852891 -0.16425034 22.58827877 -0.20724869 C26.08665335 -0.22791103 29.5846224 -0.25582356 33.08276367 -0.30175781 C58.23303059 -0.62305914 79.57811573 0.14796366 98.62890625 18.53515625 C109.22362907 29.5487808 113.48693382 41.83136779 113.20703125 57.015625 C112.63406805 68.04246391 109.57099174 76.17244738 103 85 C102.53722656 85.65742188 102.07445313 86.31484375 101.59765625 86.9921875 C92.77271795 98.50297658 77.85310484 103.47203099 64.11016846 105.72406006 C57.96210411 106.52802266 51.74731833 106.30397354 45.5625 106.1875 C44.13738428 106.17239277 42.71225268 106.15871527 41.28710938 106.14648438 C37.85773237 106.11403259 34.4289754 106.06260184 31 106 C32.35752626 103.22438868 33.80047587 100.74671723 35.625 98.25 C36.07101563 97.63640625 36.51703125 97.0228125 36.9765625 96.390625 C37.31429687 95.93171875 37.65203125 95.4728125 38 95 C38.96486328 95.24169922 38.96486328 95.24169922 39.94921875 95.48828125 C43.92449858 96.15506954 47.78886308 96.18417743 51.8125 96.1875 C52.96588867 96.20586914 52.96588867 96.20586914 54.14257812 96.22460938 C64.21262112 96.25010315 72.10689653 93.5341327 79.5390625 86.5546875 C90.4423721 74.31354851 89.76413227 58.2473323 89.1953125 42.84179688 C88.52078297 33.02739215 84.37903253 24.98487928 77.1875 18.3203125 C69.89849061 12.41268795 60.97025294 8.85016526 51.578125 8.90234375 C50.55332031 8.90556641 49.52851562 8.90878906 48.47265625 8.91210938 C46.87744141 8.92467773 46.87744141 8.92467773 45.25 8.9375 C44.17105469 8.94201172 43.09210937 8.94652344 41.98046875 8.95117188 C39.32025617 8.96294273 36.66015635 8.97938601 34 9 C34.00967804 9.74787277 34.01935608 10.49574554 34.02932739 11.26628113 C34.11224245 18.37060615 34.14606682 25.47316354 34.12697029 32.57783031 C34.11882747 36.22934484 34.12859362 39.87885038 34.18164062 43.5300293 C34.56719389 71.6438734 34.56719389 71.6438734 28.3671875 78.85546875 C26.61226207 80.60523172 24.82527427 82.32375194 23 84 C21.69972644 85.73691371 20.44563379 87.50977655 19.25 89.3203125 C18.70472656 90.12210937 18.15945312 90.92390625 17.59765625 91.75 C17.07042969 92.53375 16.54320313 93.3175 16 94.125 C15.16275391 95.35863281 15.16275391 95.35863281 14.30859375 96.6171875 C12.19327704 99.73664251 10.09068258 102.86397613 8 106 C5.6171875 106.29296875 5.6171875 106.29296875 2.875 106.1875 C1.50988281 106.14689453 1.50988281 106.14689453 0.1171875 106.10546875 C-0.58148437 106.07066406 -1.28015625 106.03585938 -2 106 C-2 104.02 -2 102.04 -2 100 C-1.31292969 99.91363281 -0.62585938 99.82726562 0.08203125 99.73828125 C0.98308594 99.59777344 1.88414063 99.45726562 2.8125 99.3125 C3.70582031 99.18488281 4.59914063 99.05726563 5.51953125 98.92578125 C8.93920618 97.64946163 9.46834842 96.29095552 11 93 C11.28957784 90.24569953 11.42073371 87.71985856 11.40405273 84.96850586 C11.41091599 84.17440811 11.41777924 83.38031036 11.42485046 82.56214905 C11.44310166 79.94619704 11.43928437 77.33084555 11.43359375 74.71484375 C11.43815552 72.8931102 11.44346108 71.07137837 11.44947815 69.24964905 C11.45840529 65.43581133 11.45598966 61.62218308 11.44604492 57.80834961 C11.43454034 52.91992186 11.45479134 48.03221486 11.48396206 43.1438818 C11.50229995 39.38378812 11.5020367 35.62386808 11.49632454 31.86374092 C11.49617111 30.06120351 11.50223322 28.25865448 11.51461601 26.45615959 C11.52948352 23.93767765 11.51888216 21.42053929 11.50170898 18.90209961 C11.51137695 18.15757538 11.52104492 17.41305115 11.53100586 16.64596558 C11.48239632 13.2440695 11.2406012 11.32763417 9.20301819 8.55299377 C6.22707102 6.4551321 3.58146583 6.27549737 0 6 C0 4.02 0 2.04 0 0 Z " fill="#080808" transform="translate(18,70)"/>
<path d="M0 0 C5.50783678 2.14317036 8.89450536 6.49955945 11.23828125 11.80078125 C12.22774972 14.51732197 13.14274829 17.23920988 14 20 C14.495 21.485 14.495 21.485 15 23 C15.26192621 26.97453178 15.23155308 30.95527157 15.25 34.9375 C15.270625 36.01580078 15.29125 37.09410156 15.3125 38.20507812 C15.37313838 50.85576066 13.07061465 61.76002931 4.04296875 71.00390625 C-4.33888643 78.68059579 -12.0176282 80.1793636 -23.0625 80.125 C-23.85205078 80.12886719 -24.64160156 80.13273437 -25.45507812 80.13671875 C-28.75186634 80.13119186 -31.69936426 80.06485085 -34.93359375 79.3671875 C-35.95646484 79.18542969 -35.95646484 79.18542969 -37 79 C-37.99 79.99 -37.99 79.99 -39 81 C-39.66 81 -40.32 81 -41 81 C-44.55379978 83.51179038 -44.55379978 83.51179038 -47 87 C-49.49361571 85.79618552 -51.68143083 84.54571278 -54 83 C-55.65549531 82.61500109 -57.3222433 82.27206865 -59 82 C-59.55723019 84.10009873 -60.09531745 86.20528465 -60.625 88.3125 C-60.92664062 89.48425781 -61.22828125 90.65601563 -61.5390625 91.86328125 C-62.38047111 95.15488418 -62.38047111 95.15488418 -60 98 C-62.31 99.65 -64.62 101.3 -67 103 C-65.5102402 94.50836915 -62.31428738 86.9105161 -59 79 C-58.34 79 -57.68 79 -57 79 C-56.64035156 77.94039062 -56.64035156 77.94039062 -56.2734375 76.859375 C-54.79072165 73.53008664 -52.90315039 71.09584482 -50.625 68.25 C-46.65265528 63.20932701 -42.86672122 58.07078092 -39.1875 52.8125 C-29.87430987 39.52292528 -20.34316686 26.39635622 -10.66845703 13.36767578 C-8.27070994 10.12984212 -5.9063668 6.90244026 -3.72265625 3.515625 C-2 1 -2 1 0 0 Z " fill="#F9F9F9" transform="translate(93,87)"/>
<path d="M0 0 C4.09317503 2.53923238 7.59956522 5.59956522 11 9 C11.04063832 10.66617115 11.042721 12.33388095 11 14 C11.82951172 14.12375 11.82951172 14.12375 12.67578125 14.25 C15.75893708 15.24490071 17.69782201 16.94059132 20.1875 19 C21.06792969 19.721875 21.94835937 20.44375 22.85546875 21.1875 C25.97448936 23.82361214 25.97448936 23.82361214 26.2734375 25.890625 C26.45271307 30.05533428 26.35198015 32.40527493 24.1875 36.0625 C19.53688468 38.88934461 15.30836275 38.41834733 10 38 C10.08701172 38.99580078 10.08701172 38.99580078 10.17578125 40.01171875 C10.40888203 44.57383395 10.51487244 47.19551181 8 51.125 C4.99493086 53.00316821 2.84405396 53.91168635 -0.73828125 53.6796875 C-5.6991064 52.18886958 -9.54824446 48.76076984 -13 45 C-13.72166191 42.68308546 -14.40059529 40.35151077 -15 38 C-18.27682556 36.28577587 -18.27682556 36.28577587 -22 35 C-24.81284737 33.05600993 -27.4462274 31.10754519 -29 28 C-29.57708034 23.26794123 -29.96013118 19.34418366 -27.125 15.375 C-22.71875516 13.43625227 -18.74162611 13.66854652 -14 14 C-14.04640625 13.32453125 -14.0928125 12.6490625 -14.140625 11.953125 C-14.42926829 4.8195122 -14.42926829 4.8195122 -12.625 1.375 C-8.36434222 -0.85677312 -4.67467013 -1.13708192 0 0 Z " fill="#0E0E0E" transform="translate(224,102)"/>
<path d="M0 0 C3.99530843 2.09833175 7.13580282 4.50336863 10 8 C10.82937101 10.79065087 10.60670994 12.08779229 10 15 C10.71542969 14.92007813 11.43085938 14.84015625 12.16796875 14.7578125 C16.96206755 15.1677906 19.54167674 18.14674459 22.9296875 21.34765625 C25.71865107 24.92068693 26.1629117 27.3799704 25.64453125 31.82421875 C25 34 25 34 23.125 36.625 C18.71875516 38.56374773 14.74162611 38.33145348 10 38 C10.08701172 38.99580078 10.08701172 38.99580078 10.17578125 40.01171875 C10.40682021 44.53348124 10.49577523 47.20036254 8.0625 51.125 C4.61044287 53.23850437 2.50525777 53.96603907 -1.51171875 53.75 C-6.71336139 52.18215795 -10.7386499 48.23199001 -14 44 C-14.78125 40.6953125 -14.78125 40.6953125 -15 38 C-15.72703125 37.91621094 -16.4540625 37.83242187 -17.203125 37.74609375 C-20.59188507 36.84210887 -22.19205162 35.43589841 -24.75 33.0625 C-25.52859375 32.35222656 -26.3071875 31.64195312 -27.109375 30.91015625 C-30.20308077 27.78449071 -30.18685661 25.40391109 -30.42578125 21.0703125 C-29.78986695 17.97825215 -28.51052895 16.86118291 -26 15 C-22.984375 14.609375 -22.984375 14.609375 -19.75 14.75 C-18.67234375 14.78609375 -17.5946875 14.8221875 -16.484375 14.859375 C-15.25460938 14.92898437 -15.25460938 14.92898437 -14 15 C-14.03480469 14.16855469 -14.06960937 13.33710937 -14.10546875 12.48046875 C-14.13253906 11.39378906 -14.15960938 10.30710937 -14.1875 9.1875 C-14.23970703 7.56908203 -14.23970703 7.56908203 -14.29296875 5.91796875 C-14 3 -14 3 -12.8046875 1.15625 C-8.8663966 -1.366984 -4.42955577 -0.89741649 0 0 Z " fill="#101010" transform="translate(167,102)"/>
<path d="M0 0 C4.3124594 1.59720719 6.42143673 4.31633819 9 8 C8.6745612 11.26665324 7.24405468 13.33439556 5.296875 15.9140625 C4.73548828 16.66558594 4.17410156 17.41710937 3.59570312 18.19140625 C2.98662109 18.99449219 2.37753906 19.79757813 1.75 20.625 C0.46273223 22.34574893 -0.82370757 24.06711753 -2.109375 25.7890625 C-3.08874023 27.09665527 -3.08874023 27.09665527 -4.08789062 28.43066406 C-6.93497254 32.25633951 -9.71914094 36.12606166 -12.5 40 C-16.97534811 46.22179212 -21.50248293 52.40253187 -26.0625 58.5625 C-32.51227568 67.27970451 -38.78700377 76.11291198 -45 85 C-47.49361571 83.79618552 -49.68143083 82.54571278 -52 81 C-53.65549531 80.61500109 -55.3222433 80.27206865 -57 80 C-57.55723019 82.10009873 -58.09531745 84.20528465 -58.625 86.3125 C-58.92664062 87.48425781 -59.22828125 88.65601563 -59.5390625 89.86328125 C-60.38047111 93.15488418 -60.38047111 93.15488418 -58 96 C-60.31 97.65 -62.62 99.3 -65 101 C-63.5102402 92.50836915 -60.31428738 84.9105161 -57 77 C-56.34 77 -55.68 77 -55 77 C-54.64035156 75.94039062 -54.64035156 75.94039062 -54.2734375 74.859375 C-52.79072165 71.53008664 -50.90315039 69.09584482 -48.625 66.25 C-44.65265528 61.20932701 -40.86672122 56.07078092 -37.1875 50.8125 C-28.43260867 38.31959684 -19.47601017 25.97655695 -10.4375 13.6875 C-9.85371582 12.8929541 -9.26993164 12.0984082 -8.66845703 11.27978516 C-5.85046157 7.45800737 -3.00376614 3.67942991 0 0 Z " fill="#070707" transform="translate(91,89)"/>
<path d="M0 0 C0.721875 0.00257812 1.44375 0.00515625 2.1875 0.0078125 C2.909375 0.00523438 3.63125 0.00265625 4.375 0 C6.1875 0.1328125 6.1875 0.1328125 7.1875 1.1328125 C7.26021741 3.48594805 7.27120868 5.84114918 7.25 8.1953125 C7.24097656 9.48566406 7.23195312 10.77601562 7.22265625 12.10546875 C7.21105469 13.10449219 7.19945312 14.10351562 7.1875 15.1328125 C8.18652344 15.12121094 9.18554688 15.10960938 10.21484375 15.09765625 C11.50519531 15.08863281 12.79554688 15.07960938 14.125 15.0703125 C15.41277344 15.05871094 16.70054687 15.04710938 18.02734375 15.03515625 C21.1875 15.1328125 21.1875 15.1328125 22.1875 16.1328125 C22.3203125 17.9453125 22.3203125 17.9453125 22.3125 20.1328125 C22.31636719 21.215625 22.31636719 21.215625 22.3203125 22.3203125 C22.1875 24.1328125 22.1875 24.1328125 21.1875 25.1328125 C18.83436445 25.20552991 16.47916332 25.21652118 14.125 25.1953125 C12.83464844 25.18628906 11.54429687 25.17726562 10.21484375 25.16796875 C9.21582031 25.15636719 8.21679688 25.14476562 7.1875 25.1328125 C7.21070313 26.04804688 7.23390625 26.96328125 7.2578125 27.90625 C7.28488281 29.68902344 7.28488281 29.68902344 7.3125 31.5078125 C7.33570313 32.69117188 7.35890625 33.87453125 7.3828125 35.09375 C7.1875 38.1328125 7.1875 38.1328125 5.1875 40.1328125 C2.47295044 40.46033484 -0.06480759 40.263655 -2.8125 40.1328125 C-3.8125 39.1328125 -3.8125 39.1328125 -3.91015625 36.19140625 C-3.89855469 34.99644531 -3.88695312 33.80148438 -3.875 32.5703125 C-3.86146484 30.77400391 -3.86146484 30.77400391 -3.84765625 28.94140625 C-3.83605469 28.01457031 -3.82445312 27.08773437 -3.8125 26.1328125 C-4.72773438 26.15601563 -5.64296875 26.17921875 -6.5859375 26.203125 C-8.36871094 26.23019531 -8.36871094 26.23019531 -10.1875 26.2578125 C-11.37085938 26.28101563 -12.55421875 26.30421875 -13.7734375 26.328125 C-16.8125 26.1328125 -16.8125 26.1328125 -18.8125 24.1328125 C-19.0625 20.6328125 -19.0625 20.6328125 -18.8125 17.1328125 C-16.8125 15.1328125 -16.8125 15.1328125 -13.5546875 14.9375 C-12.27851563 14.96070312 -11.00234375 14.98390625 -9.6875 15.0078125 C-7.76550781 15.03488281 -7.76550781 15.03488281 -5.8046875 15.0625 C-4.32355469 15.09730469 -4.32355469 15.09730469 -2.8125 15.1328125 C-2.82410156 14.13378906 -2.83570313 13.13476562 -2.84765625 12.10546875 C-2.85667969 10.81511719 -2.86570313 9.52476563 -2.875 8.1953125 C-2.88660156 6.90753906 -2.89820313 5.61976562 -2.91015625 4.29296875 C-2.78379705 0.20398513 -2.78379705 0.20398513 0 0 Z " fill="#F5F5F5" transform="translate(216.8125,104.8671875)"/>
<path d="M0 0 C3.5 0.25 3.5 0.25 5.5 2.25 C5.6953125 5.2890625 5.6953125 5.2890625 5.625 8.875 C5.60695312 10.06351563 5.58890625 11.25203125 5.5703125 12.4765625 C5.54710937 13.39179687 5.52390625 14.30703125 5.5 15.25 C6.87285156 15.21519531 6.87285156 15.21519531 8.2734375 15.1796875 C9.46195313 15.16164063 10.65046875 15.14359375 11.875 15.125 C13.05835938 15.10179688 14.24171875 15.07859375 15.4609375 15.0546875 C18.5 15.25 18.5 15.25 20.5 17.25 C20.6875 20.8125 20.6875 20.8125 20.5 24.25 C19.5 25.25 19.5 25.25 16.12109375 25.34765625 C14.72652923 25.34098369 13.33198257 25.32902532 11.9375 25.3125 C11.22658203 25.30798828 10.51566406 25.30347656 9.78320312 25.29882812 C8.02209987 25.28700864 6.26103964 25.26907263 4.5 25.25 C4.51160156 26.24902344 4.52320313 27.24804688 4.53515625 28.27734375 C4.54417969 29.56769531 4.55320313 30.85804688 4.5625 32.1875 C4.57410156 33.47527344 4.58570313 34.76304687 4.59765625 36.08984375 C4.5 39.25 4.5 39.25 3.5 40.25 C1.6875 40.3828125 1.6875 40.3828125 -0.5 40.375 C-1.221875 40.37757813 -1.94375 40.38015625 -2.6875 40.3828125 C-4.5 40.25 -4.5 40.25 -5.5 39.25 C-5.57271741 36.89686445 -5.58370868 34.54166332 -5.5625 32.1875 C-5.55347656 30.89714844 -5.54445312 29.60679687 -5.53515625 28.27734375 C-5.52355469 27.27832031 -5.51195312 26.27929688 -5.5 25.25 C-6.49902344 25.26160156 -7.49804688 25.27320313 -8.52734375 25.28515625 C-9.81769531 25.29417969 -11.10804688 25.30320313 -12.4375 25.3125 C-13.72527344 25.32410156 -15.01304687 25.33570313 -16.33984375 25.34765625 C-19.5 25.25 -19.5 25.25 -20.5 24.25 C-20.6328125 22.4375 -20.6328125 22.4375 -20.625 20.25 C-20.62757813 19.528125 -20.63015625 18.80625 -20.6328125 18.0625 C-20.5 16.25 -20.5 16.25 -19.5 15.25 C-17.14686445 15.17728259 -14.79166332 15.16629132 -12.4375 15.1875 C-11.14714844 15.19652344 -9.85679687 15.20554687 -8.52734375 15.21484375 C-7.52832031 15.22644531 -6.52929688 15.23804687 -5.5 15.25 C-5.52320313 14.33476563 -5.54640625 13.41953125 -5.5703125 12.4765625 C-5.58835938 11.28804687 -5.60640625 10.09953125 -5.625 8.875 C-5.64820313 7.69164063 -5.67140625 6.50828125 -5.6953125 5.2890625 C-5.40610666 0.78901962 -4.44440375 0.31745741 0 0 Z " fill="#F8F8F8" transform="translate(161.5,104.75)"/>
<path d="M0 0 C0.33 0 0.66 0 1 0 C1 4.62 1 9.24 1 14 C-1.124375 14.144375 -3.24875 14.28875 -5.4375 14.4375 C-9.54119916 14.36536356 -9.54119916 14.36536356 -13 16 C-13.16666667 19.5 -13.16666667 19.5 -13 23 C-10.44946069 25.55053931 -2.09014574 24.7899901 1 25 C1 29.29 1 33.58 1 38 C-0.485 38.495 -0.485 38.495 -2 39 C-2.020625 38.236875 -2.04125 37.47375 -2.0625 36.6875 C-2.371875 35.800625 -2.68125 34.91375 -3 34 C-5.93894883 32.55634487 -5.93894883 32.55634487 -8.08203125 31.81640625 C-11.75437804 30.25322808 -15.20118507 27.59762987 -17 24 C-17.14640501 22.35857459 -17.22096589 20.7101859 -17.25 19.0625 C-17.27578125 18.18722656 -17.3015625 17.31195313 -17.328125 16.41015625 C-17 14 -17 14 -15.90234375 12.1953125 C-13.04528046 10.40011462 -10.64418287 10.71353912 -7.3125 10.8125 C-5.54326172 10.85310547 -5.54326172 10.85310547 -3.73828125 10.89453125 C-2.83464844 10.92933594 -1.93101562 10.96414062 -1 11 C-1.01160156 10.28972656 -1.02320313 9.57945313 -1.03515625 8.84765625 C-1.04869141 7.46900391 -1.04869141 7.46900391 -1.0625 6.0625 C-1.07410156 5.14597656 -1.08570313 4.22945313 -1.09765625 3.28515625 C-1 1 -1 1 0 0 Z " fill="#090909" transform="translate(212,106)"/>
<path d="M0 0 C6.43443434 0.37849614 7.0180495 1.0180495 12 6 C6.06 10.95 6.06 10.95 0 16 C-1.32 15.01 -2.64 14.02 -4 13 C-3.52343588 11.20763933 -3.04366502 9.41613103 -2.5625 7.625 C-2.29566406 6.62726563 -2.02882813 5.62953125 -1.75390625 4.6015625 C-1 2 -1 2 0 0 Z " fill="#EAEAEA" transform="translate(34,169)"/>
<path d="M0 0 C3.65534439 0.51004805 5.19935975 1.67359059 7.6875 4.375 C8.27513244 8.4884271 8.01793558 9.87934664 5.6875 13.375 C2.46897169 12.74434243 0.17948931 11.59479305 -2.5625 9.8125 C-3.26890625 9.35746094 -3.9753125 8.90242188 -4.703125 8.43359375 C-5.49976562 7.90958984 -5.49976562 7.90958984 -6.3125 7.375 C-3.82384644 0.62008321 -3.82384644 0.62008321 0 0 Z " fill="#0B0B0B" transform="translate(108.3125,67.625)"/>
<path d="M0 0 C0.99 0.33 1.98 0.66 3 1 C-0.64137721 6.59528694 -4.41530566 12.09844222 -8.25 17.5625 C-8.68618652 18.19430176 -9.12237305 18.82610352 -9.57177734 19.47705078 C-10.66395633 21.02172211 -11.82646413 22.51619475 -13 24 C-13.66 24 -14.32 24 -15 24 C-15.061875 24.61875 -15.12375 25.2375 -15.1875 25.875 C-15.455625 26.57625 -15.72375 27.2775 -16 28 C-18.55078125 29.1328125 -18.55078125 29.1328125 -21 30 C-15.64275101 21.09640309 -9.52891758 12.87580096 -3.2175293 4.63476562 C-2.09415695 3.1264237 -1.04322883 1.56484325 0 0 Z " fill="#D7D7D7" transform="translate(49,142)"/>
<path d="M0 0 C0.70125 0.2475 1.4025 0.495 2.125 0.75 C3.79019519 1.09060811 5.45657466 1.42558396 7.125 1.75 C7.125 2.08 7.125 2.41 7.125 2.75 C5.4234375 2.9665625 5.4234375 2.9665625 3.6875 3.1875 C0.31722799 3.36171478 0.31722799 3.36171478 -0.875 4.75 C-1.10981693 6.93292774 -1.28863323 9.12203174 -1.4375 11.3125 C-1.52128906 12.51003906 -1.60507813 13.70757812 -1.69140625 14.94140625 C-1.75199219 15.86824219 -1.81257812 16.79507813 -1.875 17.75 C-5.835 17.75 -9.795 17.75 -13.875 17.75 C-13.875 17.42 -13.875 17.09 -13.875 16.75 C-10.245 16.75 -6.615 16.75 -2.875 16.75 C-3.535 15.76 -4.195 14.77 -4.875 13.75 C-5.17578125 11.15625 -5.17578125 11.15625 -5.1875 8.25 C-5.20425781 7.2909375 -5.22101563 6.331875 -5.23828125 5.34375 C-4.875 2.75 -4.875 2.75 -3.47265625 0.890625 C-1.875 -0.25 -1.875 -0.25 0 0 Z " fill="#171717" transform="translate(157.875,102.25)"/>
<path d="M0 0 C0.99 0.33 1.98 0.66 3 1 C4.66362417 1.34820041 6.32995171 1.68404492 8 2 C8 2.33 8 2.66 8 3 C5.69 3.33 3.38 3.66 1 4 C0.67 8.62 0.34 13.24 0 18 C-0.33 18 -0.66 18 -1 18 C-1.33 13.71 -1.66 9.42 -2 5 C-2.33 8.3 -2.66 11.6 -3 15 C-6.63 15 -10.26 15 -14 15 C-14 14.67 -14 14.34 -14 14 C-10.7 14 -7.4 14 -4 14 C-4.0825 12.4325 -4.165 10.865 -4.25 9.25 C-4.27768014 4.36445518 -4.27768014 4.36445518 -2 1.375 C-1.34 0.92125 -0.68 0.4675 0 0 Z " fill="#4D4D4D" transform="translate(214,102)"/>
<path d="M0 0 C0.33 0.66 0.66 1.32 1 2 C1.99 2.33 2.98 2.66 4 3 C2.68 3 1.36 3 0 3 C-0.55723019 5.10009873 -1.09531745 7.20528465 -1.625 9.3125 C-1.92664062 10.48425781 -2.22828125 11.65601563 -2.5390625 12.86328125 C-3.38047111 16.15488418 -3.38047111 16.15488418 -1 19 C-4.465 21.475 -4.465 21.475 -8 24 C-6.5102402 15.50836915 -3.31428738 7.9105161 0 0 Z " fill="#A4A4A4" transform="translate(34,166)"/>
<path d="M0 0 C3.20523918 1.19870734 5.07215852 2.90418894 7.25 5.5 C7.77078125 6.1084375 8.2915625 6.716875 8.828125 7.34375 C10 9 10 9 10 11 C9.34 11 8.68 11 8 11 C7.67 11.66 7.34 12.32 7 13 C6.443125 11.948125 5.88625 10.89625 5.3125 9.8125 C3.2982364 6.26046527 1.0009416 3.75086314 -2 1 C-1.34 0.67 -0.68 0.34 0 0 Z " fill="#E5E5E5" transform="translate(93,87)"/>
<path d="M0 0 C0.33 0 0.66 0 1 0 C1 2.31 1 4.62 1 7 C-2.96 7 -6.92 7 -11 7 C-10.67 6.34 -10.34 5.68 -10 5 C-7.93359375 4.5859375 -7.93359375 4.5859375 -5.4375 4.375 C-4.61121094 4.30023438 -3.78492188 4.22546875 -2.93359375 4.1484375 C-1.97646484 4.07496094 -1.97646484 4.07496094 -1 4 C-0.67 2.68 -0.34 1.36 0 0 Z " fill="#000000" transform="translate(154,112)"/>
<path d="M0 0 C1.32 0.66 2.64 1.32 4 2 C-0.75 6.875 -0.75 6.875 -3 8 C-2.25 2.25 -2.25 2.25 0 0 Z " fill="#2D2D2D" transform="translate(29,182)"/>
<path d="M0 0 C2 0.6875 2 0.6875 4 2.6875 C3.01 3.3475 2.02 4.0075 1 4.6875 C-0.65 3.3675 -2.3 2.0475 -4 0.6875 C-2 -0.3125 -2 -0.3125 0 0 Z " fill="#D9D9D9" transform="translate(105,76.3125)"/>
<path d="M0 0 C0.78375 0.04125 1.5675 0.0825 2.375 0.125 C1.59125 0.723125 0.8075 1.32125 0 1.9375 C-2.77074323 4.03585249 -2.77074323 4.03585249 -4.625 7.125 C-5.285 7.125 -5.945 7.125 -6.625 7.125 C-4.07142857 0.19387755 -4.07142857 0.19387755 0 0 Z " fill="#404040" transform="translate(108.625,67.875)"/>
</svg>
